<?xml version="1.0" standalone="no"?>
<!DOCTYPE svg PUBLIC "-//W3C//DTD SVG 20010904//EN"
 "http://www.w3.org/TR/2001/REC-SVG-20010904/DTD/svg10.dtd">
<svg version="1.0" xmlns="http://www.w3.org/2000/svg"
 width="818.000000pt" height="198.000000pt" viewBox="0 0 818.000000 198.000000"
 preserveAspectRatio="xMidYMid meet">

<g transform="translate(0.000000,198.000000) scale(0.100000,-0.100000)"
fill="#000000" stroke="none">
<path d="M3430 1858 c-11 -18 -86 -101 -167 -184 -82 -82 -182 -186 -223 -230
-59 -63 -92 -89 -156 -122 -45 -23 -84 -39 -88 -35 -3 3 -6 37 -6 75 0 53 -4
70 -16 75 -8 3 -20 1 -27 -6 -10 -10 -11 -100 -1 -152 5 -25 0 -29 -73 -64
-179 -85 -477 -193 -676 -245 -76 -20 -90 -21 -98 -9 -19 27 -3 227 24 300 34
96 87 164 143 185 70 27 210 15 287 -25 32 -17 64 -28 72 -24 27 10 16 41 -22
63 -93 55 -289 64 -380 18 -110 -54 -191 -264 -182 -467 l4 -80 -90 -20 c-49
-12 -104 -24 -121 -27 l-31 -6 -7 59 c-7 59 -52 298 -86 458 -30 137 -65 264
-78 277 -14 14 -42 -6 -42 -32 0 -10 -23 -142 -50 -293 -28 -151 -50 -278 -50
-281 0 -3 -9 -6 -20 -6 -12 0 -25 -11 -32 -26 -11 -23 -10 -29 10 -45 l23 -18
-21 -90 -22 -91 -41 -10 c-109 -28 -360 -99 -364 -104 -3 -3 -3 -13 1 -22 6
-15 25 -16 181 -12 l175 4 -3 -40 c-2 -35 1 -41 18 -41 14 0 22 11 31 40 l11
40 179 7 c98 4 258 12 356 18 l176 11 84 -84 c64 -65 94 -88 132 -101 105 -35
191 -12 296 79 40 35 55 55 55 74 0 45 -31 37 -98 -25 -103 -96 -172 -112
-267 -64 -41 21 -137 116 -127 126 4 4 55 13 114 21 110 13 197 29 453 83 186
38 200 38 200 3 0 -48 20 -307 25 -330 7 -28 31 -30 40 -3 3 10 1 54 -4 97 -6
43 -13 121 -17 174 l-7 96 132 8 c73 4 135 4 138 1 3 -3 8 -94 10 -203 3 -110
10 -204 15 -210 15 -19 46 -16 57 5 10 19 -1 208 -18 307 -20 114 -33 105 138
105 l148 0 6 -107 c4 -60 10 -206 13 -325 6 -171 10 -218 21 -222 8 -3 17 2
20 10 7 18 -3 425 -14 562 l-6 82 87 0 c78 0 87 -2 82 -17 -2 -10 -14 -49 -25
-88 -34 -120 -51 -258 -35 -299 8 -22 42 -20 47 2 3 9 5 53 6 97 1 73 42 279
59 297 4 3 63 8 131 9 l123 3 19 -49 c10 -27 25 -56 34 -64 14 -14 17 -13 35
5 11 11 24 40 28 64 l8 45 117 3 117 3 26 -58 c14 -32 48 -112 74 -178 38 -95
53 -121 69 -123 45 -7 40 9 -93 301 l-26 57 173 0 c94 0 209 3 254 7 l83 6 -8
-79 c-4 -43 -7 -126 -7 -184 0 -99 1 -105 21 -108 20 -3 21 2 28 168 4 94 9
176 12 184 4 10 40 15 142 20 75 4 155 9 177 12 l40 5 50 -206 c51 -216 64
-249 86 -227 11 10 10 24 -4 75 -10 34 -34 129 -53 210 -28 118 -33 151 -23
163 10 12 8 19 -10 37 -11 13 -21 30 -21 38 0 8 -25 139 -55 293 -46 233 -60
287 -86 332 -33 59 -43 64 -59 34 -40 -75 -195 -565 -215 -681 -6 -33 -11 -37
-43 -43 -21 -3 -141 -6 -269 -6 l-232 0 -24 78 c-14 42 -37 131 -52 197 -35
154 -48 179 -83 170 -37 -9 -58 -39 -82 -115 -16 -55 -60 -236 -76 -317 -11
-56 -33 -18 -88 150 -73 223 -104 274 -143 235 -8 -9 -32 -76 -52 -149 -21
-74 -46 -162 -57 -195 l-18 -61 -91 -6 c-49 -3 -91 -4 -93 -2 -2 2 -7 103 -12
226 -11 270 -11 565 -1 674 10 107 -10 137 -49 73z m5 -755 l8 -223 -147 0
c-138 0 -146 1 -146 19 0 15 8 20 36 23 72 6 74 68 3 68 l-41 0 3 193 4 192
-25 0 -25 0 -3 -202 c-2 -180 -4 -203 -20 -211 -19 -10 -132 -37 -208 -50
l-52 -9 -6 101 c-4 56 -9 129 -12 162 l-6 61 78 43 c136 74 188 116 290 227
55 59 133 143 174 186 l75 79 6 -219 c3 -120 10 -318 14 -440z m1729 360 c14
-60 46 -203 69 -319 l44 -212 -56 -6 c-31 -3 -109 -9 -173 -12 l-117 -7 21 93
c30 138 168 570 183 570 1 0 14 -48 29 -107z m-3680 -163 c42 -215 41 -208 14
-214 -13 -3 -55 -8 -94 -11 -70 -6 -71 -6 -68 17 20 115 76 417 81 433 9 27
36 -64 67 -225z m2780 -299 c20 -58 36 -106 36 -108 0 -2 -48 -3 -106 -3
l-106 0 7 53 c10 77 45 224 68 286 l20 54 23 -89 c12 -49 39 -136 58 -193z
m-366 48 c22 -63 43 -124 47 -136 6 -23 6 -23 -109 -23 l-115 0 20 68 c11 37
31 110 45 162 14 52 28 102 31 110 6 18 26 -25 81 -181z m-1132 0 c16 -187 20
-181 -127 -208 -57 -11 -167 -33 -244 -49 -77 -17 -200 -37 -273 -47 -129 -16
-134 -16 -147 2 -20 26 -64 147 -57 154 4 3 80 27 168 52 194 55 399 130 549
202 61 28 112 50 114 48 3 -2 10 -71 17 -154z m-1222 -110 c3 -40 5 -73 4 -74
-8 -5 -263 -63 -266 -60 -5 4 30 162 38 176 8 12 91 25 171 28 l46 1 7 -71z
m1566 -44 c0 -11 -11 -15 -47 -14 l-48 1 40 13 c53 18 55 18 55 0z m-1219 -89
l36 -85 -71 -6 c-96 -8 -599 -26 -603 -21 -2 2 -1 15 3 30 4 19 16 28 43 36
63 17 246 60 254 60 4 0 7 -17 7 -39 0 -42 20 -67 46 -57 12 5 15 18 12 58
l-3 52 115 27 c63 15 117 28 120 28 3 1 21 -37 41 -83z m-681 -78 c0 -29 -19
-37 -100 -43 -47 -4 -82 -5 -79 -1 5 6 150 52 172 55 4 1 7 -5 7 -11z"/>
<path d="M2827 417 c-8 -21 8 -39 29 -35 11 2 20 13 22 26 3 18 -1 22 -21 22
-14 0 -27 -6 -30 -13z"/>
</g>
</svg>
